<svg aria-hidden="true" style="position: absolute; width: 0; height: 0; overflow: hidden;" version="1.1" xmlns="http://www.w3.org/2000/svg" xmlns:xlink="http://www.w3.org/1999/xlink">
<defs>

<symbol id="icon-devices" viewBox="0 0 27 32">
<path d="M2.2 23.16c-0.347-0.293-0.36-0.373-0.427-1.973-0.093-1.92 0.053-2.6 0.587-2.8 0.173-0.067 0.8-0.12 1.373-0.12 0.827 0 1.053-0.040 1.12-0.213 0.040-0.12 0.080-2.48 0.080-5.267v-5.053h0.8v10.533h7.787c6.973 0 7.787-0.027 7.867-0.213 0.040-0.12 0.080-2.48 0.080-5.267v-5.053h0.8v5.24l-0.013 5.227 1.333 0.067c1.84 0.093 1.773 0 1.76 2.547-0.013 2.027-0.013 2.053-0.36 2.36l-0.333 0.293h-22.107l-0.347-0.307zM24.667 20.467v-1.4l-22.067 0.067-0.040 1.373-0.040 1.36h22.147v-1.4z"></path>
<path d="M19.867 20.267c0-0.333 0.053-0.4 0.307-0.4 0.413 0 0.467 0.067 0.387 0.467-0.040 0.24-0.147 0.333-0.373 0.333-0.267 0-0.32-0.067-0.32-0.4z"></path>
<path d="M21.56 20.573c-0.053-0.040-0.093-0.227-0.093-0.4 0-0.24 0.080-0.307 0.32-0.307 0.453 0 0.56 0.24 0.227 0.547-0.293 0.28-0.333 0.293-0.453 0.16z"></path>
<path d="M23.16 20.573c-0.053-0.040-0.093-0.227-0.093-0.4 0-0.24 0.067-0.307 0.333-0.307 0.187 0 0.373 0.093 0.413 0.2 0.147 0.36-0.4 0.773-0.653 0.507z"></path>
</symbol>

<symbol id="icon-eva" viewBox="0 0 77 32">
<path fill="#fff" style="fill: var(--color2, #fff)" d="M29.017 0l9.556 23.658 9.141-23.658h5.651l-12.863 32h-4.273l-13.231-32h6.019zM64.026 0l13.231 32h-6.018l-0.811-2.006h-13.165l1.703-5.243h9.344l-6.628-16.409-9.142 23.658h-5.651l12.863-32h4.273zM16.749 0l2.164 5.221h-13.271v7.899h16.546l2.163 5.221h-18.709v8.216h22.115l2.164 5.221h-29.92v-31.778h16.749z"></path>
</symbol>

<symbol id="icon-laptop" viewBox="0 0 40 32">
<path d="M1.92 26.213c-0.333-0.147-0.427-0.28-0.507-0.747-0.040-0.293-0.053-0.6-0.013-0.667 0.040-0.053 0.507-0.080 1.053-0.053 0.707 0.040 1.027 0 1.133-0.12 0.093-0.133 0.147-3.093 0.173-9.733l0.040-9.547 0.293-0.28 0.307-0.28 15.36 0.013c15.267 0 15.36 0 15.64 0.267 0.267 0.267 0.267 0.427 0.307 9.88l0.027 9.6 0.373 0.133c0.2 0.080 0.707 0.12 1.133 0.093 0.467-0.040 0.773 0 0.787 0.080 0.107 0.747 0.027 1.093-0.333 1.32-0.347 0.213-1.427 0.227-17.867 0.227-14.387-0.013-17.573-0.040-17.907-0.187zM34.773 24.64c0.2-0.2 0.24-18.84 0.040-18.96-0.2-0.133-30.053-0.093-30.173 0.027-0.067 0.067-0.107 4.307-0.080 9.507l0.040 9.387 0.867 0.080c0.48 0.040 7.227 0.080 15.013 0.093 10.84 0.027 14.173-0.013 14.293-0.133z"></path>
</symbol>

<symbol id="icon-mobil" viewBox="0 0 32 32">
<path d="M1.76 28.080c-0.493-0.453-0.493-0.453-0.493-11.92 0-9.427 0.027-11.507 0.187-11.8 0.333-0.613 0.653-0.64 9.653-0.6 8.387 0.040 8.387 0.040 8.84 0.533 0.453 0.507 0.453 0.507 0.453 11.773s0 11.267-0.547 11.867c-0.56 0.6-0.56 0.6-9.067 0.6-8.52 0-8.52 0-9.027-0.453zM19.36 27.507c0.227-0.2 0.24-0.733 0.24-11.307 0-10.373-0.013-11.12-0.227-11.387-0.24-0.293-0.24-0.293-8.587-0.253-6.84 0.027-8.387 0.067-8.56 0.227-0.213 0.16-0.227 1.12-0.227 11.293 0 10.947 0 11.12 0.267 11.387s0.44 0.267 8.56 0.267c7.52 0 8.307-0.027 8.533-0.227z"></path>
<path d="M10.293 26.72c-0.44-0.307-0.36-0.973 0.147-1.253 0.32-0.173 0.4-0.173 0.733 0 0.453 0.267 0.52 0.653 0.16 1.107-0.32 0.413-0.613 0.453-1.040 0.147z"></path>
<path d="M10.453 5.947c-0.133-0.347 0.053-0.64 0.373-0.587 0.227 0.027 0.307 0.133 0.307 0.373s-0.080 0.347-0.307 0.373c-0.173 0.027-0.333-0.040-0.373-0.16z"></path>
<path d="M23 28.4c-0.147-0.053-0.413-0.267-0.6-0.467-0.333-0.36-0.333-0.36-0.373-7.12s-0.040-6.76 0.267-7.213c0.187-0.28 0.467-0.493 0.747-0.56 0.253-0.067 1.88-0.107 3.64-0.080 3.187 0.040 3.187 0.040 3.587 0.44 0.4 0.413 0.4 0.413 0.413 7.28 0.027 8.613 0.427 7.853-4.187 7.84-1.773 0-3.347-0.053-3.493-0.12zM29.707 27.48c0.293-0.253 0.293-0.253 0.293-6.8 0-6.533 0-6.533-0.293-6.733-0.28-0.2-1.587-0.307-1.4-0.12 0.053 0.040-0.040 0.227-0.2 0.4-0.267 0.28-0.387 0.307-1.707 0.307-1.453 0-2-0.16-2-0.613 0-0.24-1.2-0.267-1.44-0.027-0.12 0.12-0.16 1.813-0.16 6.787 0 6.627 0 6.627 0.307 6.827 0.24 0.173 0.787 0.213 3.293 0.213 2.747 0 3.027-0.013 3.307-0.24z"></path>
</symbol>

<symbol id="icon-tv" viewBox="0 0 43 32">
<path d="M13.333 29.467c0-0.4 0-0.4 8-0.4s8 0 8 0.4 0 0.4-8 0.4-8 0-8-0.4z"></path>
<path d="M1.44 27.227c-0.333-0.2-0.36-0.307-0.44-1.427-0.053-0.653-0.067-6.013-0.040-11.893 0.040-10.053 0.053-10.707 0.28-10.933s1.227-0.24 19.733-0.28c10.72-0.013 19.68 0 19.893 0.040 0.827 0.147 0.8-0.333 0.84 12.107 0.013 7.68-0.013 11.493-0.107 11.84-0.107 0.373-0.253 0.573-0.48 0.653-0.213 0.080-7.72 0.133-19.827 0.12-17.72-0.013-19.52-0.027-19.853-0.227zM40.907 14.707l-0.040-11.173h-39.067l-0.040 11.173-0.027 11.16h39.2l-0.027-11.16z"></path>
</symbol>

<symbol id="icon-phone" viewBox="0 0 15 20">
<path d="M5.70685 10.493C4.59772 8.48653 4.69467 6.82739 4.79508 6.18039C4.82262 6.00143 4.93185 5.84546 5.09063 5.75842L6.71424 4.86142C6.95307 4.72951 7.06917 4.45015 6.99419 4.18782L5.88469 0.492913C5.80181 0.202467 5.51164 0.0226825 5.21467 0.0777724L1.55527 0.66725C1.31559 0.710151 1.12789 0.897612 1.08468 1.13723C0.791536 2.78984 0.355135 6.93421 3.11385 11.9254C5.87257 16.9166 9.61364 18.7511 11.1698 19.3822C11.3957 19.4731 11.6543 19.4138 11.8181 19.2337L14.2638 16.4485C14.4678 16.2268 14.4702 15.8864 14.2695 15.6618L11.7307 12.7574C11.5486 12.5543 11.2503 12.5038 11.0115 12.6356L9.38831 13.5333C9.23014 13.6215 9.03997 13.631 8.87378 13.5591C8.27249 13.3 6.81598 12.4996 5.70685 10.493Z" fill="#F1F1F4"></path>
</symbol>
</defs>
</svg>
