<svg width="160" height="48" viewBox="0 0 160 48" fill="none" xmlns="http://www.w3.org/2000/svg">
<g clip-path="url(#clip0)">
<path d="M5.6849 30.6207L13.4642 23.3229C13.6138 23.1724 13.6886 22.9467 13.6138 22.721C13.539 22.4953 13.3146 22.3448 13.0902 22.3448H10.2478C10.0982 22.3448 9.94858 22.4201 9.87377 22.4953L3.21646 28.6646V16.4765C3.21646 16.1755 2.99205 15.8746 2.61805 15.8746H0.598411C0.299205 15.8746 0 16.1003 0 16.4765V38.8965C0 39.1975 0.224404 39.4984 0.598411 39.4984H2.69285C2.99205 39.4984 3.29126 39.2727 3.29126 38.8965V32.5016L10.3226 39.2727C10.3974 39.348 10.547 39.4232 10.6966 39.4232H13.4642C13.6886 39.4232 13.913 39.2727 13.9878 39.047C14.0626 38.8213 13.9878 38.5956 13.8382 38.4451L5.6849 30.6207Z" fill="white"/>
<path d="M30.8182 22.3448H28.7237C28.4245 22.3448 28.1253 22.5705 28.1253 22.9467V24.4514C26.6293 22.8715 24.6845 22.0439 22.2908 22.0439C19.8972 22.0439 17.8027 22.9467 16.0823 24.6771C14.3619 26.4075 13.5391 28.5141 13.5391 30.9969C13.5391 33.4796 14.3619 35.5862 16.0823 37.3166C17.8027 39.047 19.8972 39.9498 22.2908 39.9498C24.6845 39.9498 26.6293 39.1223 28.1253 37.5423V39.047C28.1253 39.348 28.3497 39.6489 28.7237 39.6489H30.8182C31.1174 39.6489 31.4166 39.4232 31.4166 39.047V22.8715C31.3418 22.5705 31.1174 22.3448 30.8182 22.3448ZM28.1253 30.9216C28.1253 32.5016 27.6017 33.8558 26.4797 35.0596C25.3577 36.1881 24.0112 36.7147 22.4404 36.7147C20.7948 36.7147 19.5232 36.1881 18.4011 35.0596C17.2791 33.931 16.7555 32.5768 16.7555 30.9216C16.7555 29.2665 17.2791 27.9875 18.4011 26.8589C19.5232 25.7304 20.8696 25.2038 22.4404 25.2038C24.0112 25.2038 25.3577 25.7304 26.4797 26.8589C27.6017 27.9122 28.1253 29.2665 28.1253 30.9216Z" fill="white"/>
<path d="M42.4122 22.0439C40.5421 22.0439 39.0461 22.6458 37.9241 23.7743V22.8715C37.9241 22.5705 37.6997 22.2696 37.3257 22.2696H35.2312C34.932 22.2696 34.6328 22.4953 34.6328 22.8715V38.8966C34.6328 39.1975 34.8572 39.4984 35.2312 39.4984H37.4005C37.6997 39.4984 37.9989 39.2727 37.9989 38.8966V30.0188C37.9989 28.4389 38.3729 27.2351 39.1957 26.4075C40.0185 25.6552 41.0657 25.2038 42.487 25.2038C42.7862 25.2038 43.0854 24.9781 43.0854 24.6019V22.5705C43.0106 22.3448 42.7862 22.0439 42.4122 22.0439Z" fill="white"/>
<path d="M54.53 22.3448H50.4907V18.4326C50.4907 18.2821 50.4159 18.0564 50.2663 17.9812C50.1167 17.906 49.9671 17.8307 49.7427 17.9059L47.6483 18.5831C47.4239 18.6583 47.2743 18.884 47.2743 19.1097V22.4201H44.5066C44.2074 22.4201 43.9082 22.6458 43.9082 23.0219V25.0533C43.9082 25.3542 44.1326 25.6552 44.5066 25.6552H47.2743V34.6081C47.2743 36.6395 47.9475 38.069 49.1443 38.8213C49.9671 39.348 51.0143 39.5737 52.3608 39.5737C53.034 39.5737 53.782 39.4984 54.53 39.4232C54.8292 39.348 54.9788 39.1223 54.9788 38.8965V37.0157C54.9788 36.8652 54.904 36.7147 54.8292 36.6395C54.7544 36.5643 54.6048 36.489 54.3804 36.489C53.408 36.5643 52.5104 36.5643 51.8371 36.5643C51.3135 36.5643 50.9395 36.4138 50.7151 36.1881C50.4907 35.9624 50.3411 35.4357 50.3411 34.6834V25.5047H54.3804C54.6796 25.5047 54.9788 25.279 54.9788 24.9028V22.8715C55.0536 22.5705 54.8292 22.3448 54.53 22.3448Z" fill="white"/>
<path d="M58.6433 15.8746C58.0449 15.8746 57.596 16.1003 57.1472 16.4765C56.7732 16.8527 56.5488 17.3793 56.5488 17.9812C56.5488 18.5831 56.7732 19.0345 57.1472 19.4859C57.5212 19.8621 58.0449 20.0878 58.6433 20.0878C59.2417 20.0878 59.6905 19.8621 60.1393 19.4859C60.5133 19.1097 60.7377 18.5831 60.7377 17.9812C60.7377 17.3793 60.5133 16.9279 60.1393 16.4765C59.7653 16.1003 59.2417 15.8746 58.6433 15.8746Z" fill="white"/>
<path d="M59.6909 22.3448H57.5965C57.2973 22.3448 56.998 22.5705 56.998 22.9467V38.9718C56.998 39.2727 57.2225 39.5737 57.5965 39.5737H59.6909C59.9901 39.5737 60.2893 39.348 60.2893 38.9718V22.8715C60.2893 22.5705 59.9901 22.3448 59.6909 22.3448Z" fill="white"/>
<path d="M71.6606 21.9687C69.7157 21.9687 68.0701 22.5705 66.8733 23.7743V22.8715C66.8733 22.5705 66.6489 22.2696 66.2749 22.2696H64.1804C63.8812 22.2696 63.582 22.4953 63.582 22.8715V38.8966C63.582 39.1975 63.8064 39.4984 64.1804 39.4984H66.2749C66.5741 39.4984 66.8733 39.2727 66.8733 38.8966V30.5455C66.8733 28.7398 67.3221 27.3856 68.1449 26.4828C68.9677 25.5799 70.0897 25.1285 71.511 25.1285C72.7078 25.1285 73.6802 25.4295 74.2786 26.1066C74.9518 26.7837 75.251 27.7618 75.251 29.0408V38.8966C75.251 39.1975 75.4754 39.4984 75.8495 39.4984H77.9439C78.2431 39.4984 78.5423 39.2727 78.5423 38.8966V29.0408C78.5423 26.8589 77.9439 25.1285 76.6723 23.8495C75.4006 22.5705 73.755 21.9687 71.6606 21.9687Z" fill="white"/>
<path d="M97.99 22.3448H95.8956C95.5964 22.3448 95.2972 22.5705 95.2972 22.9467V24.4514C93.8012 22.8715 91.8563 22.0439 89.4627 22.0439C87.069 22.0439 84.9746 22.9467 83.2542 24.6771C81.5338 26.4075 80.7109 28.5141 80.7109 30.9969C80.7109 33.4796 81.5338 35.5862 83.2542 37.3166C84.9746 39.047 87.069 39.9498 89.4627 39.9498C91.8563 39.9498 93.8012 39.1223 95.2972 37.5423V39.047C95.2972 39.348 95.5216 39.6489 95.8956 39.6489H97.99C98.2892 39.6489 98.5885 39.4232 98.5885 39.047V22.8715C98.5885 22.5705 98.2892 22.3448 97.99 22.3448ZM95.372 30.9216C95.372 32.5016 94.8484 33.8558 93.7264 35.0596C92.6043 36.1881 91.2579 36.7147 89.6871 36.7147C88.0415 36.7147 86.7698 36.1881 85.6478 35.0596C84.5258 33.931 84.0022 32.5768 84.0022 30.9216C84.0022 29.2665 84.5258 27.9875 85.6478 26.8589C86.7698 25.7304 88.1163 25.2038 89.6871 25.2038C91.2579 25.2038 92.6043 25.7304 93.7264 26.8589C94.7736 27.9122 95.372 29.2665 95.372 30.9216Z" fill="white"/>
<path d="M159.177 8.87775C158.504 4.36365 155.437 1.27901 151.174 0.827596C141.15 -0.300931 121.477 -0.300931 111.454 0.827596C107.19 1.27901 104.124 4.36365 103.45 8.87775C102.254 16.326 102.254 31.2226 103.45 39.047C104.124 43.4859 107.19 46.5705 111.454 47.0972C116.466 47.6991 123.871 48 131.351 48C138.757 48 146.237 47.6991 151.248 47.0972C155.587 46.5705 158.654 43.4859 159.252 39.047C160.299 31.2226 160.299 16.326 159.177 8.87775ZM156.26 38.5956C155.811 41.6803 153.792 43.7116 150.874 44.0878C141.15 45.2915 121.477 45.2915 111.828 44.0878C108.911 43.7116 106.891 41.6803 106.368 38.5956C105.246 31.1473 105.246 16.4013 106.368 9.4044C106.891 6.24452 108.911 4.21318 111.753 3.91224C116.615 3.38559 123.946 3.08465 131.276 3.08465C138.607 3.08465 146.012 3.38559 150.8 3.91224C153.717 4.21318 155.736 6.31976 156.185 9.4044C157.233 16.4013 157.232 31.1473 156.26 38.5956Z" fill="url(#paint0_linear)"/>
<path d="M112.651 35.1348C111.978 35.1348 111.454 35.3605 111.005 35.8119C110.556 36.2633 110.332 36.79 110.332 37.4671C110.332 38.1442 110.556 38.6708 111.005 39.1223C111.454 39.5737 111.978 39.7994 112.651 39.7994C113.324 39.7994 113.848 39.5737 114.297 39.1223C114.745 38.6708 114.97 38.1442 114.97 37.4671C114.97 36.79 114.745 36.2633 114.297 35.8119C113.848 35.3605 113.324 35.1348 112.651 35.1348Z" fill="url(#paint1_linear)"/>
<path d="M127.163 22.3449H123.124V18.4326C123.124 18.2822 123.049 18.0565 122.899 17.9812C122.75 17.906 122.6 17.8307 122.376 17.906L120.281 18.5831C120.057 18.6583 119.907 18.884 119.907 19.1097V22.4201H117.139C116.84 22.4201 116.541 22.6458 116.541 23.022V25.0533C116.541 25.3543 116.765 25.6552 117.139 25.6552H119.907V34.6082C119.907 36.6395 120.58 38.069 121.777 38.8213C122.6 39.348 123.647 39.5737 124.994 39.5737C125.667 39.5737 126.415 39.4985 127.163 39.4232C127.462 39.348 127.612 39.1223 127.612 38.8966V37.0157C127.612 36.8652 127.537 36.7148 127.462 36.6395C127.387 36.5643 127.238 36.4891 127.013 36.4891C126.041 36.5643 125.143 36.5643 124.47 36.5643C123.946 36.5643 123.572 36.4138 123.348 36.1881C123.124 35.9624 122.974 35.4358 122.974 34.6834V25.5047H127.013C127.312 25.5047 127.612 25.279 127.612 24.9028V22.8715C127.686 22.5706 127.462 22.3449 127.163 22.3449Z" fill="url(#paint2_linear)"/>
<path d="M144.891 22.3448H142.647C142.422 22.3448 142.198 22.4953 142.123 22.721L137.111 35.2101L132.1 22.721C132.025 22.4953 131.8 22.3448 131.576 22.3448H129.332C129.108 22.3448 128.958 22.4201 128.883 22.5706C128.808 22.721 128.734 22.9467 128.808 23.0972L135.316 39.1223C135.391 39.348 135.615 39.4985 135.84 39.4985H138.383C138.607 39.4985 138.832 39.348 138.906 39.1223L145.414 23.0972C145.489 22.9467 145.489 22.721 145.339 22.5706C145.265 22.4201 145.115 22.3448 144.891 22.3448Z" fill="url(#paint3_linear)"/>
</g>
<defs>
<linearGradient id="paint0_linear" x1="104.746" y1="46.8982" x2="158.303" y2="1.12288" gradientUnits="userSpaceOnUse">
<stop stop-color="#FD552F"/>
<stop offset="0.0204593" stop-color="#FD582D"/>
<stop offset="0.2015" stop-color="#FD6C20"/>
<stop offset="0.3824" stop-color="#FD7819"/>
<stop offset="0.5619" stop-color="#FD7C16"/>
<stop offset="0.7418" stop-color="#FE8D1C"/>
<stop offset="0.996" stop-color="#FFAC26"/>
</linearGradient>
<linearGradient id="paint1_linear" x1="103.469" y1="45.4042" x2="157.026" y2="-0.371055" gradientUnits="userSpaceOnUse">
<stop stop-color="#FD552F"/>
<stop offset="0.0204593" stop-color="#FD582D"/>
<stop offset="0.2015" stop-color="#FD6C20"/>
<stop offset="0.3824" stop-color="#FD7819"/>
<stop offset="0.5619" stop-color="#FD7C16"/>
<stop offset="0.7418" stop-color="#FE8D1C"/>
<stop offset="0.996" stop-color="#FFAC26"/>
</linearGradient>
<linearGradient id="paint2_linear" x1="104.033" y1="46.0641" x2="157.591" y2="0.288867" gradientUnits="userSpaceOnUse">
<stop stop-color="#FD552F"/>
<stop offset="0.0204593" stop-color="#FD582D"/>
<stop offset="0.2015" stop-color="#FD6C20"/>
<stop offset="0.3824" stop-color="#FD7819"/>
<stop offset="0.5619" stop-color="#FD7C16"/>
<stop offset="0.7418" stop-color="#FE8D1C"/>
<stop offset="0.996" stop-color="#FFAC26"/>
</linearGradient>
<linearGradient id="paint3_linear" x1="109.255" y1="52.1732" x2="162.812" y2="6.39791" gradientUnits="userSpaceOnUse">
<stop stop-color="#FD552F"/>
<stop offset="0.0204593" stop-color="#FD582D"/>
<stop offset="0.2015" stop-color="#FD6C20"/>
<stop offset="0.3824" stop-color="#FD7819"/>
<stop offset="0.5619" stop-color="#FD7C16"/>
<stop offset="0.7418" stop-color="#FE8D1C"/>
<stop offset="0.996" stop-color="#FFAC26"/>
</linearGradient>
<clipPath id="clip0">
<rect width="160" height="48" fill="white"/>
</clipPath>
</defs>
</svg>
